<?xml version="1.0" encoding="UTF-8"?>
<svg xmlns="http://www.w3.org/2000/svg" version="1.1" viewBox="0 0 165.979 36.996">
  <!-- Generator: Adobe Illustrator 28.7.3, SVG Export Plug-In . SVG Version: 1.2.0 Build 164)  -->
  <g>
    <g id="Ebene_1">
      <g>
        <path d="M9.413,7.917c2.442,0,4.408.851,5.901,2.553,1.492,1.702,2.239,4.267,2.239,7.695,0,3.38-.747,5.944-2.239,7.696-1.493,1.751-3.472,2.627-5.938,2.627-1.53,0-2.793-.284-3.792-.851-.999-.567-1.782-1.245-2.349-2.035h-.222c.024.42.067.95.129,1.591.061.642.092,1.196.092,1.665v8.139H-.021V8.287h2.664l.444,2.701h.148c.592-.863,1.369-1.591,2.331-2.183s2.244-.888,3.848-.888ZM8.821,10.655c-2.022,0-3.453.567-4.292,1.701-.839,1.135-1.27,2.862-1.295,5.18v.629c0,2.442.401,4.323,1.203,5.642.801,1.32,2.287,1.979,4.458,1.979,1.184,0,2.17-.327,2.96-.98.789-.653,1.375-1.559,1.757-2.719.382-1.159.574-2.479.574-3.959,0-2.269-.438-4.082-1.313-5.438-.876-1.356-2.226-2.034-4.051-2.034Z" fill="#1b73e8"/>
        <path d="M25.987,28.117h-3.256V0h3.256v28.117Z" fill="#1b73e8"/>
        <path d="M39.786,7.954c2.417,0,4.205.531,5.365,1.591,1.159,1.061,1.739,2.751,1.739,5.069v13.504h-2.367l-.629-2.812h-.148c-.864,1.086-1.776,1.887-2.738,2.405-.962.518-2.269.777-3.921.777-1.801,0-3.293-.475-4.477-1.425-1.184-.949-1.776-2.435-1.776-4.458,0-1.973.777-3.496,2.331-4.569,1.554-1.073,3.946-1.659,7.177-1.757l3.367-.111v-1.183c0-1.652-.358-2.799-1.073-3.441-.716-.641-1.726-.962-3.033-.962-1.036,0-2.023.154-2.96.462-.938.309-1.813.661-2.627,1.055l-.999-2.442c.863-.468,1.887-.87,3.071-1.203s2.417-.499,3.699-.499ZM43.671,18.424l-2.923.111c-2.467.099-4.175.494-5.124,1.184-.95.691-1.425,1.665-1.425,2.923,0,1.11.339,1.924,1.017,2.442.678.518,1.548.777,2.608.777,1.652,0,3.04-.463,4.162-1.388,1.122-.925,1.683-2.349,1.683-4.273v-1.776Z" fill="#1b73e8"/>
        <path d="M65.943,22.642c0,1.924-.716,3.38-2.146,4.366-1.431.987-3.355,1.48-5.771,1.48-1.382,0-2.572-.111-3.57-.333-.999-.222-1.881-.53-2.645-.925v-2.96c.789.395,1.745.759,2.867,1.092,1.122.333,2.262.499,3.422.499,1.652,0,2.849-.265,3.589-.796.74-.53,1.11-1.239,1.11-2.127,0-.493-.136-.937-.407-1.332-.271-.394-.758-.789-1.461-1.183s-1.708-.838-3.015-1.332c-1.283-.493-2.38-.986-3.293-1.48-.913-.493-1.616-1.085-2.109-1.776-.494-.69-.74-1.578-.74-2.664,0-1.677.684-2.971,2.053-3.884,1.369-.912,3.163-1.369,5.383-1.369,1.208,0,2.336.124,3.385.37,1.048.247,2.029.568,2.941.962l-1.11,2.59c-.839-.345-1.715-.641-2.627-.888-.913-.246-1.85-.37-2.812-.37-1.332,0-2.349.216-3.052.647-.703.432-1.054,1.017-1.054,1.758,0,.567.16,1.036.481,1.406.32.37.857.74,1.609,1.11.752.37,1.757.79,3.015,1.258,1.258.469,2.331.95,3.218,1.443.888.494,1.566,1.091,2.035,1.794.468.703.703,1.585.703,2.645Z" fill="#1b73e8"/>
        <path d="M77.374,25.824c.493,0,.999-.037,1.517-.111.518-.074.937-.172,1.258-.296v2.479c-.346.173-.839.314-1.48.426-.642.111-1.258.166-1.85.166-1.036,0-1.992-.179-2.867-.537-.876-.357-1.585-.98-2.128-1.868-.542-.888-.814-2.133-.814-3.736v-11.543h-2.812v-1.554l2.849-1.295,1.295-4.217h1.924v4.55h5.734v2.516h-5.734v11.469c0,1.209.29,2.103.869,2.682.58.58,1.326.87,2.239.87Z" fill="#1b73e8"/>
        <path d="M85.772.851c.493,0,.931.166,1.313.499.382.333.573.857.573,1.573s-.191,1.239-.573,1.572c-.383.333-.82.499-1.313.499-.543,0-.999-.166-1.369-.499s-.555-.857-.555-1.572.185-1.24.555-1.573.826-.499,1.369-.499ZM87.363,8.287v19.83h-3.256V8.287h3.256Z" fill="#1b73e8"/>
        <path d="M101.606,28.487c-1.776,0-3.342-.358-4.699-1.073-1.357-.715-2.423-1.825-3.2-3.33-.777-1.504-1.165-3.428-1.165-5.771,0-2.442.4-4.427,1.202-5.956.801-1.529,1.906-2.651,3.311-3.366,1.406-.715,2.997-1.073,4.772-1.073.986,0,1.955.105,2.905.314.949.21,1.72.463,2.312.759l-.999,2.7c-.592-.222-1.283-.431-2.072-.629-.789-.197-1.529-.296-2.22-.296-3.898,0-5.846,2.504-5.846,7.511,0,2.392.475,4.224,1.425,5.494.949,1.271,2.361,1.906,4.236,1.906,1.06,0,2.01-.111,2.849-.333.838-.222,1.603-.493,2.294-.814v2.885c-.666.346-1.4.611-2.201.795-.802.185-1.77.278-2.904.278Z" fill="#1b73e8"/>
        <path d="M124.322,22.642c0,1.924-.716,3.38-2.146,4.366-1.431.987-3.355,1.48-5.771,1.48-1.382,0-2.572-.111-3.57-.333-.999-.222-1.881-.53-2.645-.925v-2.96c.789.395,1.745.759,2.867,1.092,1.122.333,2.262.499,3.422.499,1.652,0,2.849-.265,3.589-.796.74-.53,1.11-1.239,1.11-2.127,0-.493-.136-.937-.407-1.332-.271-.394-.758-.789-1.461-1.183s-1.708-.838-3.015-1.332c-1.283-.493-2.38-.986-3.293-1.48-.913-.493-1.616-1.085-2.109-1.776-.494-.69-.74-1.578-.74-2.664,0-1.677.684-2.971,2.053-3.884,1.369-.912,3.163-1.369,5.383-1.369,1.208,0,2.336.124,3.385.37,1.048.247,2.029.568,2.941.962l-1.11,2.59c-.839-.345-1.715-.641-2.627-.888-.913-.246-1.85-.37-2.812-.37-1.332,0-2.349.216-3.052.647-.703.432-1.054,1.017-1.054,1.758,0,.567.16,1.036.481,1.406.32.37.857.74,1.609,1.11.752.37,1.757.79,3.015,1.258,1.258.469,2.331.95,3.218,1.443.888.494,1.566,1.091,2.035,1.794.468.703.703,1.585.703,2.645Z" fill="#1b73e8"/>
        <path d="M128.317,25.749c0-1.036.277-1.769.832-2.201.555-.432,1.214-.647,1.979-.647s1.43.216,1.998.647c.567.432.851,1.165.851,2.201,0,1.012-.284,1.739-.851,2.183-.568.444-1.234.666-1.998.666s-1.425-.222-1.979-.666c-.555-.444-.832-1.171-.832-2.183Z" fill="#1b73e8"/>
        <path d="M147.296,7.696c2.59,0,4.557.567,5.901,1.701,1.344,1.135,2.016,2.886,2.016,5.254v13.466h-3.293l-.925-2.775h-.148c-.864,1.085-1.776,1.881-2.738,2.386-.962.505-2.27.759-3.922.759-1.801,0-3.293-.505-4.477-1.517-1.183-1.011-1.776-2.577-1.776-4.699,0-2.072.759-3.626,2.275-4.661,1.517-1.036,3.817-1.615,6.9-1.739l3.478-.111v-.999c0-1.282-.309-2.195-.925-2.738-.617-.542-1.48-.814-2.59-.814-1.012,0-1.979.143-2.905.426-.925.284-1.844.635-2.756,1.054l-1.48-3.256c.986-.518,2.115-.937,3.385-1.258,1.27-.32,2.595-.481,3.977-.481ZM150.589,18.646l-2.442.074c-2.047.074-3.465.425-4.254,1.055-.789.629-1.184,1.474-1.184,2.534,0,.962.278,1.646.832,2.054.555.407,1.288.61,2.201.61,1.356,0,2.503-.389,3.441-1.165.937-.777,1.406-1.93,1.406-3.459v-1.702Z" fill="#1b73e8"/>
        <path d="M163.389.333c.69,0,1.295.179,1.813.537.518.358.777.993.777,1.905s-.259,1.554-.777,1.924-1.123.555-1.813.555c-.716,0-1.326-.185-1.831-.555-.506-.37-.759-1.011-.759-1.924s.253-1.547.759-1.905c.505-.357,1.116-.537,1.831-.537ZM165.72,8.065v20.052h-4.662V8.065h4.662Z" fill="#1b73e8"/>
      </g>
    </g>
    <metadata>
      <sfw xmlns="http://ns.adobe.com/SaveForWeb/1.0/">
        <slices/>
        <sliceSourceBounds x="227.81" y="-877.88" width="1407.72" height="844.78" bottomLeftOrigin="true"/>
      </sfw>
    </metadata>
  </g>
</svg>